grf.mot
version=1
nRows=71
nColumns=19
inDegrees=yes
endheader
time	ground_force_vx	ground_force_vy	ground_force_vz	ground_force_px	ground_force_py	ground_force_pz	1_ground_force_vx	1_ground_force_vy	1_ground_force_vz	1_ground_force_px	1_ground_force_py	1_ground_force_pz	ground_torque_x	ground_torque_y	ground_torque_z	1_ground_torque_x	1_ground_torque_y	1_ground_torque_z	
3.71859	-4.73241	67.6576	6.12211	0.0565912	0	0.00880046	107.025	809.721	44.2319	-0.202073	0	-0.146208	0	-0.21013	0	0	0.427072	0
3.72026	-6.55519	76.303	6.17692	0.0610808	0	0.0098015	108.573	807.798	43.2204	-0.205365	0	-0.146291	0	-0.217178	0	0	0.310307	0
3.72193	-8.47476	85.333	6.20842	0.0656725	0	0.0108313	110.035	805.44	42.1584	-0.208657	0	-0.146375	0	-0.223444	0	0	0.192247	0
3.72359	-10.4902	94.747	6.21561	0.0703598	0	0.0118887	111.406	802.644	41.047	-0.211945	0	-0.146458	0	-0.228875	0	0	0.0730649	0
3.72526	-10.7012	95.7267	6.21381	0.0708375	0	0.0119972	111.533	802.32	40.9311	-0.212272	0	-0.146467	0	-0.229329	0	0	0.0610522	0
3.72693	-10.9122	96.7064	6.212	0.0713151	0	0.0121056	111.661	801.996	40.8152	-0.2126	0	-0.146475	0	-0.229784	0	0	0.0490395	0
3.72859	-11.1232	97.686	6.21019	0.0717927	0	0.012214	111.789	801.672	40.6993	-0.212928	0	-0.146483	0	-0.230238	0	0	0.0370268	0
3.73026	-11.3342	98.6657	6.20839	0.0722704	0	0.0123224	111.917	801.348	40.5834	-0.213255	0	-0.146492	0	-0.230692	0	0	0.0250141	0
3.73193	-11.5452	99.6453	6.20658	0.072748	0	0.0124308	112.044	801.024	40.4675	-0.213583	0	-0.1465	0	-0.231147	0	0	0.0130014	0
3.73359	-11.7562	100.625	6.20477	0.0732257	0	0.0125392	112.172	800.7	40.3516	-0.213911	0	-0.146508	0	-0.231601	0	0	0.000988762	0
3.73526	-11.9673	101.605	6.20296	0.0737033	0	0.0126476	112.3	800.376	40.2356	-0.214239	0	-0.146516	0	-0.232056	0	0	-0.0110239	0
3.73693	-12.1783	102.584	6.20116	0.074181	0	0.0127561	112.427	800.052	40.1197	-0.214566	0	-0.146525	0	-0.23251	0	0	-0.0230366	0
3.73859	-12.3893	103.564	6.19935	0.0746586	0	0.0128645	112.555	799.728	40.0038	-0.214894	0	-0.146533	0	-0.232965	0	0	-0.0350493	0
3.74026	-12.6003	104.544	6.19754	0.0751363	0	0.0129729	112.683	799.404	39.8879	-0.215222	0	-0.146541	0	-0.233419	0	0	-0.047062	0
3.74193	-14.8037	114.721	6.15328	0.079995	0	0.0140825	113.862	795.718	38.6825	-0.218483	0	-0.146623	0	-0.237027	0	0	-0.16795	0
3.74359	-17.0987	125.275	6.08197	0.0849289	0	0.0152165	114.939	791.585	37.4327	-0.221722	0	-0.146702	0	-0.239652	0	0	-0.289412	0
3.74526	-19.4834	136.203	5.98279	0.0899304	0	0.0163736	115.911	787.003	36.1402	-0.224934	0	-0.146779	0	-0.241247	0	0	-0.411255	0
3.74693	-21.956	147.5	5.85496	0.0949918	0	0.0175524	116.776	781.971	34.807	-0.228113	0	-0.146851	0	-0.241769	0	0	-0.533282	0
3.74859	-24.5139	159.161	5.6978	0.100105	0	0.0187516	117.529	776.49	33.4352	-0.231252	0	-0.146918	0	-0.241178	0	0	-0.655293	0
3.75026	-27.1547	171.18	5.51064	0.105263	0	0.0199698	118.169	770.563	32.027	-0.234346	0	-0.146979	0	-0.239436	0	0	-0.777086	0
3.75193	-29.8757	183.55	5.2929	0.110456	0	0.0212055	118.692	764.19	30.5848	-0.237388	0	-0.147033	0	-0.236507	0	0	-0.898454	0
3.75359	-32.6739	196.263	5.04408	0.115676	0	0.0224573	119.097	757.376	29.111	-0.240372	0	-0.147078	0	-0.232361	0	0	-1.01919	0
3.75526	-35.5463	209.31	4.7637	0.120915	0	0.0237236	119.382	750.125	27.6079	-0.243292	0	-0.147114	0	-0.226967	0	0	-1.13909	0
3.75693	-38.4894	222.684	4.45139	0.126163	0	0.0250027	119.545	742.442	26.0784	-0.246142	0	-0.147139	0	-0.220302	0	0	-1.25794	0
3.75859	-38.5754	223.075	4.44155	0.126313	0	0.0250396	119.546	742.21	26.034	-0.246221	0	-0.14714	0	-0.220075	0	0	-1.2613	0
3.76026	-38.6615	223.466	4.4317	0.126463	0	0.0250765	119.547	741.978	25.9896	-0.2463	0	-0.14714	0	-0.219847	0	0	-1.26466	0
3.76193	-38.7475	223.857	4.42186	0.126613	0	0.0251134	119.548	741.747	25.9452	-0.246379	0	-0.147141	0	-0.21962	0	0	-1.26802	0
3.76359	-38.8335	224.248	4.41201	0.126763	0	0.0251502	119.549	741.515	25.9009	-0.246459	0	-0.147141	0	-0.219393	0	0	-1.27137	0
3.76526	-38.9195	224.64	4.40217	0.126913	0	0.0251871	119.551	741.283	25.8565	-0.246538	0	-0.147141	0	-0.219165	0	0	-1.27473	0
3.76693	-39.0055	225.031	4.39232	0.127063	0	0.025224	119.552	741.052	25.8121	-0.246617	0	-0.147142	0	-0.218938	0	0	-1.27809	0
3.7686	-39.0915	225.422	4.38248	0.127213	0	0.0252608	119.553	740.82	25.7677	-0.246696	0	-0.147142	0	-0.218711	0	0	-1.28145	0
3.77026	-39.1775	225.813	4.37264	0.127363	0	0.0252977	119.554	740.588	25.7233	-0.246775	0	-0.147142	0	-0.218483	0	0	-1.28481	0
3.77193	-39.2635	226.204	4.36279	0.127513	0	0.0253346	119.555	740.357	25.6789	-0.246855	0	-0.147143	0	-0.218256	0	0	-1.28817	0
3.7736	-39.3495	226.595	4.35295	0.127663	0	0.0253715	119.556	740.125	25.6346	-0.246934	0	-0.147143	0	-0.218029	0	0	-1.29153	0
3.77527	-39.4356	226.986	4.3431	0.127813	0	0.0254083	119.557	739.893	25.5902	-0.247013	0	-0.147144	0	-0.217801	0	0	-1.29489	0
3.77694	-39.5216	227.377	4.33326	0.127963	0	0.0254452	119.558	739.662	25.5458	-0.247092	0	-0.147144	0	-0.217574	0	0	-1.29825	0
3.77861	-39.6076	227.769	4.32341	0.128113	0	0.0254821	119.56	739.43	25.5014	-0.247172	0	-0.147144	0	-0.217346	0	0	-1.30161	0
3.78028	-39.6936	228.16	4.31357	0.128263	0	0.0255189	119.561	739.198	25.457	-0.247251	0	-0.147145	0	-0.217119	0	0	-1.30497	0
3.78195	-39.7796	228.551	4.30373	0.128413	0	0.0255558	119.562	738.967	25.4126	-0.24733	0	-0.147145	0	-0.216892	0	0	-1.30833	0
3.78362	-39.8656	228.942	4.29388	0.128563	0	0.0255927	119.563	738.735	25.3682	-0.247409	0	-0.147145	0	-0.216664	0	0	-1.31169	0
3.78529	-39.9516	229.333	4.28404	0.128713	0	0.0256296	119.564	738.503	25.3239	-0.247489	0	-0.147146	0	-0.216437	0	0	-1.31505	0
3.78695	-40.0376	229.724	4.27419	0.128863	0	0.0256664	119.565	738.271	25.2795	-0.247568	0	-0.147146	0	-0.21621	0	0	-1.31841	0
3.78862	-40.1236	230.115	4.26435	0.129013	0	0.0257033	119.566	738.04	25.2351	-0.247647	0	-0.147147	0	-0.215982	0	0	-1.32177	0
3.79029	-40.2096	230.506	4.2545	0.129163	0	0.0257402	119.567	737.808	25.1907	-0.247726	0	-0.147147	0	-0.215755	0	0	-1.32513	0
3.79195	-40.2957	230.898	4.24466	0.129313	0	0.025777	119.568	737.576	25.1463	-0.247805	0	-0.147147	0	-0.215527	0	0	-1.32849	0
3.79362	-40.3817	231.289	4.23482	0.129463	0	0.0258139	119.57	737.345	25.1019	-0.247885	0	-0.147148	0	-0.2153	0	0	-1.33185	0
3.79529	-40.4677	231.68	4.22497	0.129613	0	0.0258508	119.571	737.113	25.0576	-0.247964	0	-0.147148	0	-0.215073	0	0	-1.33521	0
3.79695	-40.5537	232.071	4.21513	0.129763	0	0.0258877	119.572	736.881	25.0132	-0.248043	0	-0.147148	0	-0.214845	0	0	-1.33857	0
3.79862	-40.6397	232.462	4.20528	0.129913	0	0.0259245	119.573	736.65	24.9688	-0.248122	0	-0.147149	0	-0.214618	0	0	-1.34193	0
3.80029	-40.7257	232.853	4.19544	0.130063	0	0.0259614	119.574	736.418	24.9244	-0.248202	0	-0.147149	0	-0.214391	0	0	-1.34529	0
3.80195	-40.8117	233.244	4.18559	0.130213	0	0.0259983	119.575	736.186	24.88	-0.248281	0	-0.14715	0	-0.214163	0	0	-1.34865	0
3.80362	-40.8977	233.635	4.17575	0.130363	0	0.0260351	119.576	735.955	24.8356	-0.24836	0	-0.14715	0	-0.213936	0	0	-1.35201	0
3.80529	-40.9837	234.027	4.16591	0.130513	0	0.026072	119.577	735.723	24.7913	-0.248439	0	-0.14715	0	-0.213709	0	0	-1.35537	0
3.80695	-41.0698	234.418	4.15606	0.130663	0	0.0261089	119.579	735.491	24.7469	-0.248518	0	-0.147151	0	-0.213481	0	0	-1.35873	0
3.80862	-41.1558	234.809	4.14622	0.130813	0	0.0261457	119.58	735.26	24.7025	-0.248598	0	-0.147151	0	-0.213254	0	0	-1.36209	0
3.81029	-41.2418	235.2	4.13637	0.130963	0	0.0261826	119.581	735.028	24.6581	-0.248677	0	-0.147151	0	-0.213026	0	0	-1.36545	0
3.81196	-41.3278	235.591	4.12653	0.131113	0	0.0262195	119.582	734.796	24.6137	-0.248756	0	-0.147152	0	-0.212799	0	0	-1.36881	0
3.81362	-41.4138	235.982	4.11668	0.131263	0	0.0262564	119.583	734.564	24.5693	-0.248835	0	-0.147152	0	-0.212572	0	0	-1.37217	0
3.81529	-41.4998	236.373	4.10684	0.131413	0	0.0262932	119.584	734.333	24.525	-0.248915	0	-0.147153	0	-0.212344	0	0	-1.37553	0
3.81696	-44.5737	250.368	3.72981	0.136654	0	0.0275934	119.499	725.805	22.9504	-0.251604	0	-0.147152	0	-0.203076	0	0	-1.49165	0
3.81862	-47.7072	264.656	3.32013	0.141879	0	0.0289016	119.288	716.866	21.3575	-0.254205	0	-0.147137	0	-0.192485	0	0	-1.6061	0
3.82029	-50.8963	279.226	2.87772	0.147077	0	0.0302161	118.951	707.524	19.7492	-0.25671	0	-0.147107	0	-0.180562	0	0	-1.71867	0
3.82196	-54.1368	294.066	2.40256	0.152241	0	0.0315352	118.488	697.79	18.1283	-0.259114	0	-0.147058	0	-0.167302	0	0	-1.82915	0
3.82363	-57.4241	309.161	1.89473	0.157361	0	0.0328573	117.899	687.674	16.4979	-0.261409	0	-0.146991	0	-0.152706	0	0	-1.93735	0
3.82529	-60.7539	324.498	1.35436	0.162428	0	0.0341805	117.184	677.186	14.8608	-0.263592	0	-0.146903	0	-0.136778	0	0	-2.04307	0
3.82696	-64.1214	340.062	0.781679	0.167434	0	0.0355032	116.343	666.339	13.2202	-0.265655	0	-0.146794	0	-0.119527	0	0	-2.14612	0
3.82863	-67.5219	355.837	0.176994	0.172369	0	0.0368237	115.378	655.146	11.579	-0.267592	0	-0.146661	0	-0.100968	0	0	-2.24631	0
3.83029	-70.9503	371.809	-0.459317	0.177225	0	0.0381402	114.29	643.621	9.94028	-0.269399	0	-0.146504	0	-0.0811206	0	0	-2.34345	0
3.83196	-74.4017	387.961	-1.12679	0.181994	0	0.039451	113.08	631.776	8.30705	-0.27107	0	-0.14632	0	-0.0600087	0	0	-2.43736	0
3.83363	-77.871	404.276	-1.82489	0.186667	0	0.0407544	111.75	619.628	6.68233	-0.2726	0	-0.146109	0	-0.0376618	0	0	-2.52789	0
3.8353	-81.3528	420.736	-2.553	0.191236	0	0.0420487	110.302	607.192	5.06912	-0.273984	0	-0.145868	0	-0.0141145	0	0	-2.61485	0
